<?xml version="1.0" standalone="no"?>
<!DOCTYPE svg PUBLIC "-//W3C//DTD SVG 20010904//EN"
 "http://www.w3.org/TR/2001/REC-SVG-20010904/DTD/svg10.dtd">
<svg version="1.0" xmlns="http://www.w3.org/2000/svg"
 width="512.000000pt" height="512.000000pt" viewBox="0 0 512.000000 512.000000"
 preserveAspectRatio="xMidYMid meet">

<g transform="translate(0.000000,512.000000) scale(0.100000,-0.100000)"
fill="#000000" stroke="none">
<path d="M950 4850 c-36 -10 -579 -466 -591 -496 -20 -54 24 -114 85 -114 26
0 72 34 276 205 135 113 248 205 252 205 6 0 241 -194 408 -337 72 -62 90 -73
121 -73 65 0 107 71 76 126 -16 28 -557 479 -583 486 -10 2 -30 2 -44 -2z"/>
<path d="M3662 4843 c-18 -7 -30 -33 -94 -208 l-58 -160 23 -17 c38 -29 101
-41 199 -36 92 5 168 28 168 52 1 30 -117 334 -137 354 -21 21 -68 28 -101 15z"/>
<path d="M3400 3836 l-125 -43 -3 -1321 -2 -1322 440 0 440 0 -2 1322 -3 1321
-129 43 c-71 24 -130 43 -131 41 -1 -1 -30 -43 -63 -94 -61 -91 -62 -92 -91
-82 -21 8 -36 7 -51 -1 -12 -6 -23 -10 -24 -8 -2 2 -31 45 -65 96 -34 50 -63
92 -64 91 -1 0 -58 -20 -127 -43z"/>
<path d="M773 2733 c-50 -10 -81 -94 -50 -134 30 -39 35 -39 777 -39 764 0
766 0 784 45 14 38 6 82 -20 106 l-26 24 -721 1 c-397 1 -732 0 -744 -3z"/>
<path d="M735 2355 c-34 -33 -34 -87 0 -120 l24 -25 741 0 741 0 24 25 c17 16
25 35 25 60 0 25 -8 44 -25 60 l-24 25 -741 0 -741 0 -24 -25z"/>
<path d="M755 2018 c-49 -28 -60 -87 -24 -132 l20 -26 748 0 748 0 21 23 c22
23 29 68 16 102 -18 45 -20 45 -786 45 -525 -1 -728 -4 -743 -12z"/>
<path d="M764 1670 c-31 -12 -54 -49 -54 -86 0 -24 8 -39 31 -58 l31 -26 724
0 c768 0 770 0 788 45 14 38 6 82 -20 106 l-26 24 -726 2 c-400 1 -737 -2
-748 -7z"/>
<path d="M2470 471 c0 -144 1 -151 24 -178 34 -40 98 -39 132 1 24 27 24 32
22 174 l-3 147 -87 3 -88 3 0 -150z"/>
</g>
</svg>
