<?xml version="1.0" standalone="no"?>
<!DOCTYPE svg PUBLIC "-//W3C//DTD SVG 20010904//EN"
 "http://www.w3.org/TR/2001/REC-SVG-20010904/DTD/svg10.dtd">
<svg version="1.0" xmlns="http://www.w3.org/2000/svg"
 width="512.000000pt" height="512.000000pt" viewBox="0 0 512.000000 512.000000"
 preserveAspectRatio="xMidYMid meet">

<g transform="translate(0.000000,512.000000) scale(0.100000,-0.100000)"
fill="#000000" stroke="none">
<path d="M2843 5063 c-9 -24 33 -304 63 -420 41 -160 132 -325 277 -503 179
-221 1404 -1644 1452 -1689 69 -62 113 -86 183 -99 120 -22 219 34 274 153 18
39 23 67 22 130 0 142 -48 235 -279 544 -221 295 -463 588 -845 1021 -343 389
-480 522 -655 636 -97 63 -445 244 -469 244 -9 0 -20 -8 -23 -17z m336 -218
c197 -109 214 -129 168 -196 -30 -45 -65 -56 -117 -39 -49 16 -59 9 -67 -50
-4 -28 -16 -53 -38 -76 -48 -50 -67 -45 -99 26 -24 52 -81 250 -74 255 2 1 23
13 49 27 26 16 53 41 64 62 11 20 22 36 26 36 4 0 43 -20 88 -45z m540 -450
c160 -176 514 -582 646 -740 186 -222 225 -273 225 -295 0 -40 -30 -124 -59
-168 l-28 -43 -607 685 c-333 377 -606 687 -606 690 0 2 13 7 29 11 35 8 89
59 108 103 l14 33 75 -68 c42 -37 133 -131 203 -208z m249 -707 c276 -312 502
-570 502 -572 0 -14 -104 -74 -159 -92 l-65 -21 -355 416 c-558 651 -672 787
-734 874 -53 73 -57 83 -41 92 37 21 92 77 104 104 l12 29 117 -131 c64 -73
343 -387 619 -699z m711 -420 c15 -17 16 -29 9 -61 -31 -141 -154 -258 -302
-289 -49 -11 -58 -10 -73 5 -15 15 -15 17 3 23 64 22 146 67 188 105 56 50
121 144 138 201 6 21 13 38 15 38 3 0 13 -10 22 -22z m81 -124 c0 -35 -61
-146 -106 -190 -52 -53 -121 -89 -202 -105 -55 -12 -64 -11 -79 3 -15 15 -13
17 23 24 138 25 263 132 315 268 20 50 23 54 35 39 7 -10 14 -27 14 -39z m65
-102 c-12 -64 -56 -140 -111 -192 -62 -58 -122 -88 -194 -97 -44 -5 -54 -3
-75 17 l-25 24 72 21 c40 11 100 38 132 60 66 43 139 135 157 196 12 38 13 39
31 22 15 -13 18 -25 13 -51z m132 -167 c88 -145 106 -251 59 -351 -29 -63 -73
-96 -136 -102 -90 -8 -180 52 -307 205 l-43 50 38 7 c104 17 245 129 293 234
13 28 28 51 33 49 5 -2 33 -43 63 -92z"/>
<path d="M2140 5021 c-130 -35 -2006 -674 -2050 -698 -67 -36 -85 -66 -84
-138 0 -53 23 -117 198 -570 109 -280 200 -515 202 -520 3 -7 -33 -15 -89 -22
-108 -13 -161 -36 -206 -90 -58 -69 -66 -121 -63 -363 2 -118 -4 -701 -14
-1295 -12 -807 -14 -1090 -5 -1120 18 -65 46 -101 98 -126 l48 -24 715 -6
c393 -4 1224 -8 1845 -10 l1130 -4 42 22 c23 13 50 35 61 50 49 70 47 18 47
1458 0 1260 -1 1354 -18 1407 -22 71 -58 115 -117 141 -43 20 -62 20 -405 18
l-360 -2 -284 853 c-157 469 -294 871 -304 893 -55 113 -135 165 -251 164 -39
0 -100 -8 -136 -18z m228 -70 c73 -38 97 -86 205 -421 47 -146 172 -521 277
-833 106 -313 190 -570 188 -571 -4 -4 -2002 -37 -2323 -39 l-229 -2 -188 485
c-232 598 -235 608 -219 648 8 19 27 37 49 48 39 18 1957 667 2037 689 74 20
159 19 203 -4z m1499 -1917 c15 -11 37 -38 48 -60 20 -38 20 -59 20 -1404 0
-1506 4 -1404 -63 -1443 -33 -19 -64 -19 -1850 -10 -1622 9 -1821 11 -1854 25
-39 17 -56 42 -69 96 -4 18 1 518 11 1110 10 592 16 1163 13 1267 -5 158 -3
200 11 247 20 71 64 112 138 128 55 12 2941 69 3355 66 197 -1 214 -2 240 -22z"/>
<path d="M1296 4265 c-406 -140 -744 -259 -749 -264 -8 -8 -8 -14 0 -22 14
-14 1528 502 1528 522 0 8 -9 15 -20 16 -11 1 -353 -113 -759 -252z"/>
<path d="M1395 4082 c-581 -199 -751 -261 -753 -274 -2 -12 3 -18 15 -17 10 0
356 116 768 257 535 184 750 262 750 272 0 8 -7 16 -15 17 -8 1 -352 -114
-765 -255z"/>
<path d="M1465 3871 c-568 -195 -751 -261 -753 -274 -2 -10 3 -17 12 -17 21 0
1508 508 1519 519 11 11 0 31 -16 30 -7 0 -349 -116 -762 -258z"/>
<path d="M1570 3691 c-556 -190 -756 -263 -758 -275 -2 -10 3 -16 15 -16 17 0
1415 474 1489 505 33 13 42 35 18 41 -5 2 -349 -113 -764 -255z"/>
<path d="M1930 2970 c-817 -16 -1501 -33 -1520 -38 -150 -38 -200 -150 -186
-412 4 -69 -1 -577 -10 -1129 -13 -797 -14 -1014 -5 -1058 15 -64 61 -116 118
-133 40 -11 3233 -37 3325 -26 80 9 126 39 156 104 l27 57 3 1180 c2 768 -1
1207 -7 1258 -15 113 -51 173 -121 204 -54 24 -165 24 -1780 -7z m1774 -79
c58 -54 56 -18 56 -1320 0 -782 -4 -1209 -10 -1233 -6 -20 -19 -47 -29 -60
l-19 -23 -843 -3 c-463 -1 -846 1 -850 5 -3 5 4 584 17 1288 13 704 23 1297
24 1318 l0 37 111 0 111 0 -6 -97 c-3 -54 -11 -192 -17 -307 -10 -193 -9 -211
6 -222 9 -7 24 -10 32 -7 8 3 48 55 90 116 l77 110 90 -97 c89 -94 113 -109
134 -83 5 7 13 117 16 257 4 135 9 266 12 292 l6 48 226 3 c125 1 343 3 484 2
l256 0 26 -24z m-1080 -218 c-4 -126 -8 -230 -10 -232 -3 -3 -36 30 -75 73
-53 56 -77 76 -93 74 -13 -2 -39 -30 -70 -75 -27 -40 -50 -72 -51 -70 -1 1 3
104 8 230 l11 227 143 0 144 0 -7 -227z m-650 -25 c-3 -134 -14 -726 -24
-1316 -10 -591 -20 -1075 -22 -1075 -2 -1 -357 0 -790 3 -779 5 -787 5 -815
26 -51 38 -52 43 -37 894 8 432 15 961 16 1175 3 348 5 393 20 422 25 45 62
70 121 82 50 10 741 26 1275 29 l262 2 -6 -242z"/>
<path d="M2231 2177 c-6 -8 -8 -17 -4 -20 3 -4 295 -7 648 -7 525 0 645 2 654
13 6 8 8 17 4 20 -3 4 -295 7 -648 7 -525 0 -645 -2 -654 -13z"/>
<path d="M2231 1966 c-9 -11 -9 -16 0 -22 19 -12 1282 -4 1296 8 7 6 10 14 7
19 -3 5 -285 9 -648 9 -542 0 -645 -2 -655 -14z"/>
<path d="M2295 1763 c-68 -5 -80 -10 -66 -27 9 -11 126 -12 653 -8 624 4 669
7 652 34 -5 8 -1132 8 -1239 1z"/>
<path d="M2395 1553 c-170 -4 -186 -6 -164 -29 13 -13 96 -13 660 -7 562 7
644 10 644 23 0 13 -62 15 -495 15 -272 1 -562 -1 -645 -2z"/>
<path d="M2485 1343 c-137 -2 -253 -7 -257 -11 -4 -4 -3 -13 1 -21 7 -11 112
-12 657 -5 566 8 649 11 649 24 0 13 -51 15 -400 15 -220 0 -512 -1 -650 -2z"/>
<path d="M2570 1130 c-298 -4 -345 -7 -345 -20 0 -13 77 -15 645 -13 355 2
651 5 657 8 7 2 10 11 7 20 -7 16 -169 17 -964 5z"/>
<path d="M2670 920 c-387 -4 -445 -7 -445 -20 0 -13 78 -15 641 -14 352 0 648
4 658 7 15 6 16 10 6 22 -10 13 -46 15 -214 13 -110 -2 -401 -5 -646 -8z"/>
<path d="M2754 713 c-458 -3 -523 -5 -528 -18 -3 -9 0 -18 7 -21 23 -8 1281 1
1295 9 10 7 10 12 1 23 -9 11 -38 13 -133 12 -66 -2 -356 -4 -642 -5z"/>
<path d="M1115 2400 c-580 -5 -620 -6 -623 -22 -3 -17 32 -18 636 -18 352 0
647 3 656 6 35 13 8 47 -32 42 -9 -2 -296 -5 -637 -8z"/>
<path d="M497 2183 c-4 -3 -7 -12 -7 -20 0 -11 113 -13 639 -13 352 0 646 3
655 6 9 3 16 12 16 20 0 12 -101 14 -648 14 -357 0 -652 -3 -655 -7z"/>
<path d="M503 1973 c-7 -2 -13 -11 -13 -18 0 -7 6 -14 13 -16 6 -2 300 -2 652
1 599 5 640 6 643 23 3 16 -32 17 -640 16 -354 0 -649 -3 -655 -6z"/>
<path d="M577 1763 c-77 -3 -88 -6 -85 -21 3 -16 46 -17 648 -14 355 2 649 8
654 12 29 28 -18 30 -567 28 -309 -1 -602 -4 -650 -5z"/>
<path d="M672 1553 c-167 -3 -183 -5 -180 -21 3 -16 44 -17 648 -13 355 2 649
7 654 11 29 27 -18 30 -472 28 -257 -2 -549 -4 -650 -5z"/>
<path d="M772 1343 c-263 -3 -283 -5 -280 -21 3 -16 43 -17 648 -13 355 2 649
7 654 11 33 32 -14 33 -1022 23z"/>
<path d="M857 1133 c-344 -3 -368 -4 -365 -21 3 -16 27 -17 298 -19 162 -2
455 1 650 5 306 6 355 9 355 22 0 16 -159 19 -938 13z"/>
<path d="M960 920 c-432 -5 -465 -6 -468 -22 -3 -17 22 -18 411 -18 227 0 523
3 656 7 213 5 241 8 239 22 -4 19 -83 20 -838 11z"/>
<path d="M1040 710 c-508 -5 -545 -6 -548 -22 -3 -17 29 -18 561 -18 602 0
747 5 747 25 0 20 -26 25 -123 23 -51 -2 -337 -5 -637 -8z"/>
<path d="M4410 2011 c-78 -8 -159 -41 -192 -78 -10 -10 -28 -41 -40 -68 l-23
-50 -3 -607 c-2 -415 1 -620 8 -648 16 -61 63 -107 124 -125 65 -18 400 -35
463 -24 60 11 93 35 118 85 19 36 20 58 19 299 -1 264 -13 487 -40 740 -8 77
-19 192 -24 255 -17 193 -45 220 -228 225 -59 2 -141 0 -182 -4z m306 -93 c12
-12 20 -47 27 -123 6 -58 8 -107 6 -109 -2 -2 -120 -7 -263 -11 l-259 -7 5 81
c4 72 8 86 35 119 48 60 99 72 280 69 128 -2 155 -5 169 -19z m54 -354 l6 -41
-126 -7 c-69 -3 -194 -6 -277 -6 l-153 0 0 40 c0 22 1 41 3 42 2 2 496 14 527
13 10 0 17 -14 20 -41z m13 -146 c19 -189 28 -381 18 -387 -6 -4 -120 -15
-253 -24 -134 -10 -262 -20 -286 -24 l-42 -5 2 243 3 244 235 5 c129 3 254 7
276 8 l41 2 6 -62z m32 -484 c3 -26 3 -50 -2 -54 -4 -4 -107 -13 -228 -19
-121 -6 -253 -14 -292 -18 l-73 -6 0 52 c0 46 2 51 23 52 12 0 117 9 232 19
116 9 238 18 271 19 l62 1 7 -46z m-1 -216 c9 -113 -4 -186 -38 -215 -32 -27
-67 -28 -313 -13 -218 13 -229 22 -240 184 l-6 92 269 16 c148 8 281 16 295
16 26 2 27 1 33 -80z"/>
</g>
</svg>
